<svg xmlns="http://www.w3.org/2000/svg" viewBox="0 0 400 110.89"><defs><style>.a{fill:#fff;}</style></defs><path class="a" d="M53.8,28.23l-15.46-23H45L56.74,23,68.24,5.23h6.62l-15.4,23V44.77H53.8Z" transform="translate(0 -4.55)"/><path class="a" d="M115.63,4.55c12,0,19,8.73,19,20.45,0,12-7,20.45-19,20.45S96.61,37,96.61,25C96.61,13.28,103.63,4.55,115.63,4.55Zm0,35.91c9.12,0,13-7.59,13-15.46,0-8-4.31-15.52-13-15.46s-13,7.42-13,15.46C102.61,32.87,106.52,40.46,115.63,40.46Z" transform="translate(0 -4.55)"/><path class="a" d="M178.77,11.18a17.45,17.45,0,0,0-7.42-1.64c-3.17,0-6.91,1.13-6.91,5.27,0,7.58,17,5.83,17,18.85,0,8.44-6.51,11.79-14.44,11.79a26.5,26.5,0,0,1-8.1-1.65l.57-5.27a23.83,23.83,0,0,0,8.21,1.93c3.23,0,7.76-1.81,7.76-6.45,0-8.84-17-6.41-17-18.7,0-7,5.55-10.76,12.69-10.76A26.4,26.4,0,0,1,179.56,6Z" transform="translate(0 -4.55)"/><path class="a" d="M207.53,5.23h5.67V21.77h18.91V5.23h5.67V44.77h-5.67v-18H213.2v18h-5.67Z" transform="translate(0 -4.55)"/><path class="a" d="M266.25,5.23h5.66V44.77h-5.66Z" transform="translate(0 -4.55)"/><path class="a" d="M300.4,5.23h5.66V22.62L322.94,5.23h7.53L311.89,23.92l20.05,20.85h-8.27L306.06,25.39V44.77H300.4Z" transform="translate(0 -4.55)"/><path class="a" d="M356,5.23h5.66V44.77H356Z" transform="translate(0 -4.55)"/><path class="a" d="M15.46,98.23,0,75.23H6.63L18.4,93,29.9,75.23h6.63l-15.41,23v16.54H15.46Z" transform="translate(0 -4.55)"/><path class="a" d="M69.71,75.23h6l16.7,39.54H86.19l-4-10H62.8l-4,10h-6Zm2.77,5.33-7.87,19.59H80.36Z" transform="translate(0 -4.55)"/><path class="a" d="M116.25,75.23h9.35L138,108.08l12.18-32.85h9.34v39.54h-5.67V80.56h-.1l-13.09,34.21h-5.55L122,80.56h-.12v34.21h-5.66Z" transform="translate(0 -4.55)"/><path class="a" d="M200.29,75.23h5.94l16.7,39.54h-6.17l-4-10H193.37l-4,10h-5.94Zm2.77,5.33-7.87,19.59h15.74Z" transform="translate(0 -4.55)"/><path class="a" d="M263.76,74.55c12,0,19,8.73,19,20.45,0,12-7,20.45-19,20.45s-19-8.44-19-20.45C244.73,83.28,251.75,74.55,263.76,74.55Zm0,35.91c9.12,0,13-7.59,13-15.46,0-8-4.3-15.52-13-15.46s-13,7.42-13,15.46C250.73,102.87,254.64,110.46,263.76,110.46Z" transform="translate(0 -4.55)"/><path class="a" d="M309.23,75.23h5.66V92.62l16.88-17.39h7.53L320.73,93.92l20,20.85H332.5L314.89,95.39v19.38h-5.66Z" transform="translate(0 -4.55)"/><path class="a" d="M377.35,75.23h5.94L400,114.77h-6.17l-4-10H370.44l-4,10h-5.95Zm2.77,5.33-7.87,19.59H388Z" transform="translate(0 -4.55)"/></svg>