<svg xmlns="http://www.w3.org/2000/svg" viewBox="0 0 750 39.27"><defs><style>.a{fill:#fff;}</style></defs><path class="a" d="M14.85,23.1,0,1H6.36L17.67,18l11-17h6.36L20.29,23.1V39H14.85Z" transform="translate(0 -0.37)"/><path class="a" d="M74.23.37C85.76.37,92.51,8.74,92.51,20c0,11.53-6.69,19.63-18.28,19.63S56,31.53,56,20C56,8.74,62.7.37,74.23.37Zm0,34.48C83,34.85,86.74,27.56,86.74,20c0-7.72-4.13-14.9-12.51-14.85S61.72,12.28,61.72,20C61.72,27.56,65.47,34.85,74.23,34.85Z" transform="translate(0 -0.37)"/><path class="a" d="M134.87,6.73a16.73,16.73,0,0,0-7.13-1.58c-3,0-6.64,1.09-6.64,5.06,0,7.29,16.32,5.6,16.32,18.11,0,8.1-6.25,11.31-13.87,11.31a25.65,25.65,0,0,1-7.78-1.57l.55-5.06a23.06,23.06,0,0,0,7.88,1.85c3.1,0,7.46-1.74,7.46-6.2,0-8.49-16.32-6.15-16.32-17.95C115.34,4,120.67.37,127.52.37a25.12,25.12,0,0,1,8.1,1.36Z" transform="translate(0 -0.37)"/><path class="a" d="M162.49,1h5.44V16.9h18.16V1h5.44V39h-5.44V21.69H167.93V39h-5.44Z" transform="translate(0 -0.37)"/><path class="a" d="M218.88,1h5.43V39h-5.43Z" transform="translate(0 -0.37)"/><path class="a" d="M251.67,1h5.44V17.71L273.31,1h7.24L262.71,19,282,39H274l-16.91-18.6V39h-5.44Z" transform="translate(0 -0.37)"/><path class="a" d="M305.07,1h5.43V39h-5.43Z" transform="translate(0 -0.37)"/><path class="a" d="M380.71,23.1,365.86,1h6.37l11.31,17,11-17h6.36L386.15,23.1V39h-5.44Z" transform="translate(0 -0.37)"/><path class="a" d="M432.81,1h5.71l16,38h-5.93l-3.86-9.57h-18.6L422.31,39H416.6Zm2.66,5.11L427.91,25H443Z" transform="translate(0 -0.37)"/><path class="a" d="M477.5,1h9l11.91,31.54L510.08,1h9V39h-5.45V6.13h-.1L500.94,39h-5.32L483.05,6.13h-.11V39H477.5Z" transform="translate(0 -0.37)"/><path class="a" d="M558.21,1h5.7L580,39H574l-3.86-9.57h-18.6L547.71,39H542Zm2.66,5.11L553.31,25h15.12Z" transform="translate(0 -0.37)"/><path class="a" d="M619.16.37c11.53,0,18.28,8.37,18.28,19.63,0,11.53-6.69,19.63-18.28,19.63S600.89,31.53,600.89,20C600.89,8.74,607.63.37,619.16.37Zm0,34.48c8.76,0,12.51-7.29,12.51-14.85,0-7.72-4.13-14.9-12.51-14.85S606.65,12.28,606.65,20C606.65,27.56,610.4,34.85,619.16,34.85Z" transform="translate(0 -0.37)"/><path class="a" d="M662.83,1h5.43V17.71L684.47,1h7.24L673.87,19l19.25,20h-7.94l-16.92-18.6V39h-5.43Z" transform="translate(0 -0.37)"/><path class="a" d="M728.24,1H734l16,38h-5.93l-3.86-9.57h-18.6L717.75,39H712Zm2.67,5.11L723.35,25h15.12Z" transform="translate(0 -0.37)"/></svg>